<?xml version="1.0" standalone="no"?>
<!DOCTYPE svg PUBLIC "-//W3C//DTD SVG 20010904//EN"
 "http://www.w3.org/TR/2001/REC-SVG-20010904/DTD/svg10.dtd">
<svg version="1.0" xmlns="http://www.w3.org/2000/svg"
 width="1024.000000pt" height="1024.000000pt" viewBox="0 0 1024.000000 1024.000000"
 preserveAspectRatio="xMidYMid meet">

<g transform="translate(0.000000,1024.000000) scale(0.100000,-0.100000)"
fill="#000000" stroke="none">
<path d="M1932 9335 c-157 -29 -365 -117 -491 -210 -240 -177 -401 -424 -479
-735 l-27 -105 -3 -3080 c-2 -2118 0 -3115 8 -3192 28 -296 133 -530 335 -740
161 -170 343 -278 574 -341 l96 -27 3130 -3 c2340 -2 3149 0 3205 9 395 61
730 310 905 674 59 123 87 208 110 339 13 79 15 444 15 3206 0 3428 4 3190
-60 3382 -107 318 -324 570 -615 713 -113 56 -239 97 -348 115 -41 6 -1140 10
-3172 9 -2537 -1 -3123 -3 -3183 -14z m6344 -130 c462 -80 812 -435 889 -903
14 -88 16 -393 12 -3217 -2 -2509 -5 -3130 -16 -3170 -64 -248 -145 -404 -288
-556 -133 -140 -306 -244 -498 -297 l-100 -27 -3100 -3 c-2351 -3 -3121 0
-3185 9 -294 41 -572 215 -735 460 -65 96 -121 221 -152 334 l-28 100 -3 3133
c-2 3417 -5 3234 53 3409 75 223 235 435 424 563 125 84 289 147 437 169 32 5
1441 9 3130 10 2712 1 3082 -1 3160 -14z"/>
<path d="M3959 8456 c-131 -47 -186 -196 -119 -326 24 -47 57 -77 165 -148
110 -72 127 -91 127 -135 0 -66 -43 -105 -103 -92 -38 9 -62 39 -68 88 l-6 42
-75 0 -75 0 1 -55 c3 -139 102 -218 260 -208 142 9 219 90 219 228 -1 105 -50
172 -197 271 -99 67 -118 89 -118 140 0 47 25 69 77 69 46 0 67 -18 80 -70 l9
-35 67 -3 c80 -3 86 3 68 85 -16 68 -76 135 -136 152 -53 14 -131 13 -176 -3z"/>
<path d="M5365 8461 l-80 -6 -54 -153 c-30 -84 -57 -150 -61 -145 -5 4 -29 74
-55 156 l-47 147 -84 0 c-48 0 -84 -4 -84 -10 0 -5 23 -67 51 -137 28 -71 71
-181 95 -246 l44 -118 0 -160 0 -160 78 3 77 3 5 165 5 165 99 230 c99 232
115 276 100 273 -5 -1 -45 -4 -89 -7z"/>
<path d="M7305 8458 c-3 -7 -6 -85 -7 -173 l-3 -160 -99 0 -99 0 -2 45 c-1 25
-3 100 -4 168 l-1 122 -79 0 -79 0 -1 -267 c-1 -148 2 -335 5 -416 l7 -148 76
3 76 3 1 170 0 170 100 0 99 0 5 -173 c3 -94 8 -172 13 -172 4 0 36 0 72 0
l65 0 -2 418 -3 417 -68 3 c-48 2 -69 -1 -72 -10z"/>
<path d="M1447 8453 c-2 -5 -3 -30 -2 -58 1 -27 3 -211 4 -409 l1 -358 163 4
c142 3 167 6 203 25 89 47 131 129 120 236 -7 69 -25 107 -67 140 l-31 24 34
47 c32 46 33 52 33 139 0 72 -4 99 -18 122 -27 43 -74 73 -136 85 -62 12 -298
14 -304 3z m263 -138 c37 -19 50 -43 50 -90 0 -20 -5 -45 -10 -56 -16 -28 -63
-49 -115 -49 l-45 0 0 98 c0 54 3 102 7 105 12 13 84 7 113 -8z m10 -333 c72
-36 88 -132 30 -187 -30 -28 -90 -42 -134 -31 -26 6 -26 7 -26 115 0 59 3 111
7 114 13 13 89 7 123 -11z"/>
<path d="M2047 8454 c-3 -4 -7 -191 -7 -416 0 -355 2 -409 15 -414 8 -4 95 -2
193 2 l177 9 0 65 0 65 -110 5 -110 5 -3 107 -3 107 98 3 98 3 0 64 0 63 -95
2 -95 1 -3 95 -3 95 107 2 c59 2 111 6 116 11 5 5 8 36 6 68 l-3 59 -186 3
c-102 1 -188 -1 -192 -4z"/>
<path d="M2602 8053 c-56 -225 -102 -411 -102 -415 0 -5 35 -8 78 -8 l79 0 13
58 c21 96 17 93 127 90 l97 -3 16 -70 16 -70 82 -3 c62 -2 82 0 82 10 -1 7
-47 193 -104 413 l-103 400 -89 3 -89 3 -103 -408z m258 -120 c0 -9 -19 -13
-63 -13 -35 0 -66 2 -69 5 -5 5 1 36 44 225 l21 95 33 -150 c18 -82 33 -156
34 -162z"/>
<path d="M3170 8045 l0 -415 80 0 80 0 2 243 c3 205 5 237 16 212 7 -16 54
-127 104 -247 l93 -216 70 1 70 2 3 418 2 417 -75 0 -76 0 3 -245 c2 -135 0
-245 -3 -245 -4 0 -20 33 -36 73 -17 39 -65 150 -108 245 l-78 172 -74 0 -73
0 0 -415z"/>
<path d="M4344 8446 c-3 -7 -4 -40 -2 -72 l3 -59 77 -3 78 -3 2 -337 3 -337
73 -3 c39 -2 73 -2 74 0 1 2 5 154 8 338 l5 335 75 5 75 5 3 73 3 72 -236 0
c-190 0 -237 -3 -241 -14z"/>
<path d="M5550 8045 l0 -415 200 0 200 0 0 75 0 75 -120 0 -120 0 0 340 0 340
-80 0 -80 0 0 -415z"/>
<path d="M6040 8039 l0 -422 143 6 c78 4 163 6 190 7 l47 0 0 70 0 69 -112 3
-113 3 -3 107 -3 107 98 3 98 3 3 62 3 62 -98 3 -98 3 0 90 0 90 110 5 110 5
0 70 0 70 -187 3 -188 2 0 -421z"/>
<path d="M7582 8133 c3 -372 5 -383 86 -455 94 -85 260 -77 357 16 71 68 76
98 73 457 l-3 304 -77 3 -78 3 0 -311 c0 -250 -3 -316 -14 -339 -40 -77 -161
-60 -185 26 -7 23 -11 156 -11 331 l0 292 -76 0 -75 0 3 -327z"/>
<path d="M8238 8454 c-3 -5 -4 -191 -4 -414 l1 -405 146 0 146 0 69 35 c89 46
117 94 118 203 1 78 -15 117 -68 167 l-26 24 24 25 c73 76 75 216 4 297 -54
62 -76 68 -249 72 -86 2 -159 0 -161 -4z m278 -158 c36 -36 45 -86 24 -127
-16 -28 -63 -49 -115 -49 l-45 0 0 105 0 105 51 0 c45 0 55 -4 85 -34z m-11
-310 c72 -30 86 -134 25 -188 -28 -26 -43 -30 -100 -30 -52 0 -50 -5 -50 110
0 60 3 112 7 115 11 12 82 7 118 -7z"/>
<path d="M6527 8073 c-10 -9 -9 -131 1 -135 4 -2 72 -1 152 2 l145 5 -2 40 c0
22 -1 52 -2 68 l-1 27 -143 0 c-79 0 -147 -3 -150 -7z"/>
<path d="M4873 7356 c-50 -13 -101 -30 -113 -36 -49 -26 -64 -123 -32 -207 26
-69 20 -87 -31 -99 -41 -9 -42 -10 -40 -46 3 -45 32 -104 67 -137 16 -15 29
-43 37 -79 25 -122 54 -172 117 -198 17 -8 32 -18 32 -22 0 -4 -37 -26 -82
-47 -175 -85 -320 -202 -381 -307 -23 -40 -217 -556 -217 -577 0 -4 22 -18 50
-31 86 -40 85 -35 51 -211 -17 -85 -46 -239 -65 -344 -19 -104 -46 -233 -59
-285 -51 -200 -45 -322 22 -389 34 -34 94 -61 137 -61 18 0 19 -12 17 -307 -1
-349 6 -502 42 -823 44 -402 44 -400 73 -411 l26 -10 -30 -20 c-16 -11 -102
-56 -191 -99 -96 -46 -166 -86 -172 -98 -6 -11 -11 -38 -11 -60 0 -42 17 -64
60 -77 35 -11 831 -8 842 3 19 19 27 88 17 152 -5 36 -13 92 -16 126 -5 57 -4
61 17 67 17 4 21 10 15 24 -16 42 -27 539 -15 743 13 241 20 310 31 310 4 0
20 -39 34 -87 112 -377 243 -682 388 -905 l57 -88 59 0 c51 0 61 -3 66 -20 3
-11 4 -24 1 -28 -3 -5 -64 -49 -136 -97 -72 -49 -138 -98 -146 -109 -20 -29
-18 -73 4 -85 31 -17 356 -31 472 -21 207 18 324 46 372 89 l30 27 -16 75
c-36 158 -90 299 -215 558 -152 315 -214 466 -237 580 -15 78 -15 85 0 96 17
13 18 3 -20 283 l-7 53 -106 -6 c-208 -11 -232 -15 -227 -33 10 -34 46 -260
46 -291 0 -17 3 -31 8 -31 4 1 36 7 72 15 76 17 170 19 170 5 0 -5 -1 -10 -2
-10 -2 0 -52 -9 -113 -20 -155 -28 -163 -27 -169 13 -2 17 -12 86 -21 152 -10
66 -25 173 -35 238 -17 114 -17 157 0 157 11 0 16 -18 30 -108 12 -71 13 -73
36 -68 14 4 91 9 171 12 81 2 148 6 149 7 7 7 -25 190 -34 196 -6 4 -25 70
-41 148 l-30 141 25 60 c28 70 45 179 37 238 -5 36 3 60 62 190 37 81 71 159
76 171 5 13 30 66 55 118 37 75 53 97 79 109 18 9 40 16 48 16 9 0 18 4 21 9
15 24 -163 590 -211 668 -45 76 -63 95 -155 164 -96 71 -194 125 -320 175
l-98 39 0 87 c0 85 1 89 35 134 35 46 40 63 26 99 -5 13 -2 30 11 50 13 23 18
50 18 110 0 98 -22 152 -73 184 -19 11 -37 29 -39 39 -3 9 -29 30 -59 47 -48
26 -65 30 -154 32 -80 3 -118 -2 -192 -21z m30 -168 c34 -18 63 -23 154 -26
l112 -4 7 -37 c4 -20 13 -54 21 -75 l13 -39 -136 6 c-76 4 -168 7 -206 7 l-68
0 0 50 c0 46 16 94 42 128 13 16 12 16 61 -10z m-23 -265 c0 -25 34 -74 62
-89 13 -8 42 -13 65 -14 49 0 102 39 123 90 l13 31 81 -3 80 -3 10 -33 c8 -30
6 -36 -28 -71 l-36 -37 -4 -137 c-2 -84 -8 -143 -15 -151 -31 -37 -151 -70
-215 -59 -35 5 -36 7 -36 49 0 42 2 46 53 78 70 45 114 93 100 107 -8 8 -25 1
-59 -24 -111 -79 -155 -86 -208 -33 -37 38 -52 75 -59 149 -4 40 -2 47 13 47
19 0 30 27 30 76 0 17 3 34 7 37 12 12 23 7 23 -10z m180 -875 c73 -22 177
-115 217 -193 71 -139 10 -365 -140 -518 -84 -85 -130 -101 -272 -95 -115 5
-154 21 -192 78 -35 50 -26 118 13 103 31 -12 30 97 -3 241 -11 51 -20 70 -34
73 -25 7 -25 46 2 117 63 164 236 247 409 194z m454 -210 c2 -13 9 -93 14
-178 9 -140 12 -156 31 -169 12 -7 21 -24 21 -38 0 -22 -3 -24 -32 -18 -18 4
-36 10 -40 14 -9 8 -33 375 -25 395 9 23 26 20 31 -6z m394 -355 c-12 -27 -75
-165 -140 -308 -66 -143 -138 -304 -161 -357 -23 -54 -44 -97 -47 -98 -10 0
-110 160 -110 176 0 9 25 87 57 173 31 86 75 215 97 286 l42 130 44 8 c25 4
79 13 120 21 41 7 85 14 97 15 l22 1 -21 -47z m-1395 7 c5 -4 -5 -72 -23 -150
-47 -217 -89 -584 -87 -762 1 -80 -1 -150 -6 -154 -14 -14 -26 11 -34 66 -6
38 -13 55 -23 55 -12 0 -15 -13 -14 -57 1 -62 23 -107 55 -115 40 -11 13 -38
-34 -35 -44 4 -85 29 -104 65 -30 54 -24 204 15 367 17 74 57 266 87 425 31
160 58 296 60 304 4 10 17 12 53 6 26 -4 51 -10 55 -15z m850 -592 c-36 -38
-148 -108 -236 -148 -156 -71 -514 -134 -567 -100 -30 19 8 31 111 34 226 8
489 95 648 215 60 45 88 45 44 -1z m-439 -314 c3 -9 6 -27 6 -40 0 -55 86
-456 136 -631 5 -17 2 -23 -9 -23 -17 0 -42 68 -81 225 -28 110 -86 424 -86
461 0 27 25 33 34 8z m1202 -1865 c16 -27 -92 -50 -132 -29 -46 25 -26 37 68
39 32 0 60 -4 64 -10z m-1212 -8 c16 -6 11 -10 -25 -19 -103 -26 -149 -22
-149 13 0 12 16 15 78 14 42 0 86 -4 96 -8z m911 -16 c-35 -30 -59 -29 -63 3
-3 20 1 22 45 22 l48 -1 -30 -24z m-1223 -65 c3 -24 5 -25 83 -24 44 0 109 4
145 9 59 7 64 7 52 -8 -15 -18 -209 -67 -266 -67 -58 0 -79 16 -72 53 8 40 35
82 46 71 5 -5 10 -20 12 -34z m1322 19 c-3 -5 -1 -16 5 -23 9 -10 27 -10 98 0
177 27 190 11 26 -30 -56 -14 -115 -26 -132 -26 -28 0 -31 3 -31 31 0 36 17
72 31 64 5 -4 7 -11 3 -16z m284 -130 c-4 -31 -33 -44 -165 -76 -221 -52 -703
-37 -566 18 15 7 120 15 233 19 178 6 223 12 339 38 74 18 136 34 139 37 11
10 24 -13 20 -36z m-1237 -29 c12 -7 19 -21 19 -40 l0 -30 -379 0 c-380 0
-441 5 -441 36 0 8 6 14 13 15 6 0 120 2 252 5 132 3 287 9 345 13 156 12 170
12 191 1z"/>
<path d="M4841 5934 c-16 -20 -31 -27 -59 -28 -37 -1 -37 -1 -40 -46 -2 -25 4
-108 13 -185 11 -91 15 -167 10 -217 -9 -113 17 -148 69 -92 28 31 42 26 51
-16 6 -27 11 -30 44 -30 53 0 128 42 184 103 39 42 47 57 43 78 -4 19 2 33 20
50 34 32 47 91 40 173 -12 130 -47 174 -164 206 -38 10 -47 9 -78 -9 -46 -28
-60 -26 -76 6 -18 37 -32 39 -57 7z"/>
<path d="M2410 2144 c-46 -20 -87 -59 -113 -109 -27 -51 -36 -231 -16 -302 40
-145 245 -193 351 -82 24 25 39 53 46 85 14 66 8 76 -45 72 -44 -3 -46 -5 -62
-48 -13 -36 -23 -47 -53 -58 -33 -13 -41 -12 -75 4 -45 23 -61 64 -62 164 -1
86 13 133 50 164 55 46 123 26 144 -41 5 -20 13 -23 54 -23 26 0 50 2 53 5 10
10 -10 87 -29 114 -46 63 -164 89 -243 55z"/>
<path d="M2782 1883 l3 -278 148 -3 148 -3 -3 53 -3 53 -92 3 -93 3 0 224 0
225 -55 0 -55 0 2 -277z"/>
<path d="M3260 2144 c-95 -41 -135 -123 -135 -279 0 -90 3 -106 28 -158 21
-43 39 -63 72 -82 84 -50 193 -42 261 17 56 49 77 100 82 198 10 209 -65 320
-218 319 -30 0 -71 -7 -90 -15z m134 -96 c14 -6 35 -31 47 -55 18 -36 20 -58
17 -132 -4 -104 -21 -138 -82 -158 -104 -35 -169 81 -136 242 20 97 80 137
154 103z"/>
<path d="M4079 2156 c-2 -2 -4 -127 -3 -278 l1 -273 51 -3 52 -3 0 116 0 116
93 -3 92 -3 1 -110 2 -110 51 -3 51 -3 0 278 0 278 -56 -3 -56 -4 4 -104 3
-104 -92 0 -93 0 0 110 0 110 -48 0 c-27 0 -51 -2 -53 -4z"/>
<path d="M5113 2144 c-2 -6 -3 -79 -1 -163 2 -83 1 -151 -2 -151 -6 0 -142
232 -166 283 -17 35 -20 37 -66 37 l-48 0 0 -269 c0 -176 4 -272 10 -276 6 -4
28 -4 50 0 l40 7 2 161 3 162 59 -105 c33 -58 77 -133 99 -168 39 -62 40 -63
81 -60 l41 3 0 274 0 274 -49 1 c-27 0 -50 -4 -53 -10z"/>
<path d="M5457 2146 c-90 -32 -120 -91 -125 -244 -5 -134 7 -185 54 -241 86
-100 252 -91 329 18 27 38 30 52 33 132 l4 89 -106 0 -106 0 0 -45 0 -45 45 0
c55 0 65 -16 42 -65 -12 -26 -26 -37 -57 -46 -36 -11 -44 -10 -68 8 -50 36
-63 77 -60 185 2 80 7 102 24 125 43 57 111 55 149 -4 19 -30 24 -32 78 -33
64 0 66 4 38 65 -46 99 -160 141 -274 101z"/>
<path d="M6140 2138 c-88 -45 -113 -157 -52 -229 14 -17 62 -49 106 -70 75
-37 116 -68 116 -91 0 -23 -50 -58 -84 -58 -38 0 -76 36 -76 71 0 16 -8 19
-50 19 -58 0 -66 -10 -55 -67 15 -79 107 -131 211 -118 99 12 169 88 161 174
-7 62 -32 90 -130 142 -112 58 -134 79 -121 116 20 58 105 53 126 -7 9 -28 13
-30 65 -30 l56 0 -6 37 c-4 21 -15 49 -25 63 -27 37 -98 70 -152 70 -28 0 -63
-9 -90 -22z"/>
<path d="M6510 1886 l0 -276 55 0 55 0 0 110 0 110 90 0 90 0 0 -116 0 -115
50 3 51 3 4 272 c1 150 0 275 -3 277 -4 2 -28 2 -55 -1 l-47 -6 0 -103 0 -104
-90 0 -89 0 -3 108 -3 107 -52 3 -53 3 0 -275z"/>
<path d="M7145 2141 c-51 -23 -78 -53 -106 -116 -19 -41 -23 -69 -23 -155 -1
-96 1 -110 27 -163 21 -42 39 -63 70 -81 116 -68 259 -29 319 88 30 57 37 201
14 280 -39 135 -179 203 -301 147z m160 -114 c27 -27 34 -44 40 -91 10 -75 1
-161 -20 -193 -42 -64 -140 -61 -179 7 -28 47 -29 198 -3 247 38 72 108 84
162 30z"/>
<path d="M7574 2151 c-2 -2 -4 -127 -4 -278 l0 -273 50 0 c33 0 50 4 51 13 4
35 7 77 8 125 l1 52 43 0 c98 0 181 45 206 113 28 73 -1 175 -60 218 -31 22
-47 25 -162 29 -71 3 -131 3 -133 1z m210 -102 c48 -22 58 -98 19 -141 -12
-13 -31 -18 -70 -18 l-53 0 0 85 0 85 40 0 c21 0 50 -5 64 -11z"/>
<path d="M3622 2103 l3 -48 62 -3 63 -3 2 -217 3 -217 53 -3 52 -3 0 220 0
221 65 0 65 0 0 50 0 50 -186 0 -185 0 3 -47z"/>
<path d="M4592 1883 l3 -268 53 -3 52 -3 0 270 0 271 -55 0 -55 0 2 -267z"/>
</g>
</svg>
